<?xml version="1.0" encoding="UTF-8"?>
<svg id="Capa_1" data-name="Capa 1" xmlns="http://www.w3.org/2000/svg" version="1.1" viewBox="0 0 400 400">
  <defs>
    <style>
      .cls-1, .cls-2 {
        fill: #fff;
        stroke-width: 0px;
      }

      .cls-1, .cls-3 {
        display: none;
      }
    </style>
  </defs>
  <g class="cls-3">
    <g>
      <path class="cls-2" d="M203,213.94c27.82-.76,55.7-.77,83.52,0,32.23.9,55.19,27.18,52.57,59.24h-63.1c3.12,6.76,5.25,14.02,6.21,21.55,21.95,0,43.89,0,65.84-.02,8.99-.01,12.45-3.41,12.52-12.18.05-6.58.22-13.17-.15-19.74-2.06-36.27-31.57-67.58-67.89-69.38-25.55-1.27-51.23-1.46-76.83-.74"/>
      <path class="cls-2" d="M244.84,84.15c20.87.06,38.02,17.29,37.96,38.15-.06,20.8-17.41,38.06-38.19,37.99-6.72-.02-13.06-1.86-18.58-5.02.09,1.36.15,2.73.15,4.11-.02,6.26-1.04,12.3-2.88,17.97,6.49,2.55,13.52,4,20.87,4.06,32.67.29,59.63-26.34,59.74-58.99.11-32.46-26.26-59.17-58.62-59.38-26.54-.17-49.14,17.08-56.88,40.96,7.01,2.73,13.38,6.77,18.81,11.82,3.08-17.92,18.87-31.71,37.63-31.66Z"/>
    </g>
    <g>
      <path class="cls-2" d="M155.16,336.96c-33.78,0-67.56,0-101.33,0-11.22,0-14.76-3.28-14.44-14.42.28-9.83,0-19.9,2.11-29.4,7.2-32.47,34.11-56.19,67.42-57.65,31.29-1.37,62.75-1.41,94.03.15,36.31,1.8,65.83,33.12,67.89,69.38.37,6.56.2,13.16.15,19.74-.07,8.77-3.53,12.17-12.52,12.18-34.44.04-68.87.02-103.31.02ZM60.74,315.41h188.77c2.62-32.07-20.33-58.34-52.57-59.24-27.82-.78-55.7-.77-83.52,0-32.24.88-54.98,26.83-52.68,59.25Z"/>
      <path class="cls-2" d="M214.33,164.64c-.11,32.65-27.07,59.27-59.74,58.99-32.34-.28-58.72-27.03-58.62-59.45.1-32.68,26.91-59.12,59.74-58.91,32.36.2,58.73,26.91,58.62,59.38ZM193.23,164.53c.06-20.86-17.09-38.1-37.96-38.15-20.89-.06-38.12,17.05-38.18,37.92-.06,20.82,17.15,38.15,37.95,38.22,20.78.07,38.13-17.19,38.19-37.99Z"/>
    </g>
  </g>
  <path class="cls-2" d="M337.63,239.04c0,17.6.06,35.2-.01,52.8-.11,28.15-17.78,45.69-45.95,45.71-7.51,0-15.03.15-22.54-.04-23.86-.61-41.24-17.98-41.66-41.83-.25-14.38,0-28.76-.08-43.14-.07-12.34-5.34-17.43-17.79-17.46-6.44-.02-12.88-.02-19.32,0-12.3.04-17.48,5.21-17.54,17.7-.07,13.31,0,26.62-.02,39.92-.06,27.37-17.33,44.75-44.54,44.84-7.3.03-14.6.04-21.89,0-25.02-.16-43.33-17.57-43.64-42.73-.45-37.13-.37-74.27,0-111.4.19-18.09,7.59-33.23,21.68-44.87,24.49-20.23,48.86-40.6,73.48-60.67,25.21-20.54,59-20.69,84.19-.25,24.83,20.15,49.36,40.66,73.98,61.07,14.67,12.16,21.45,28.07,21.61,46.89.15,17.81.03,35.63.03,53.45ZM90.27,238.38c0,17.81-.04,35.62.01,53.43.04,13.11,4.86,17.95,17.73,17.98,7.08.01,14.16.06,21.24-.01,10.83-.11,15.62-4.89,15.68-15.79.08-14.16-.13-28.33.06-42.49.35-26.17,18.31-43.79,44.41-43.82,6.87,0,13.76.39,20.6-.07,25.75-1.72,45.48,18.81,45.2,45.1-.15,13.95-.1,27.9,0,41.84.07,10.12,4.96,15.06,14.95,15.21,7.51.11,15.02.05,22.53.02,12.02-.04,17.14-5.08,17.16-17.25.06-35.62-.05-71.24.07-106.86.04-11.09-4.16-19.86-12.69-26.86-23.55-19.33-46.94-38.84-70.51-58.15-17.45-14.3-35.86-14.29-53.21-.04-23.38,19.2-46.59,38.6-70.02,57.72-8.95,7.3-13.41,16.29-13.26,27.89.22,17.38.06,34.76.06,52.14Z"/>
  <path class="cls-1" d="M276.06,338.45c-3.89,0-7.79-1.09-11.25-3.28l-64.97-41.03-65.09,40.86c-7.33,4.6-16.59,4.28-23.59-.82-7-5.1-10.14-13.82-8-22.21l18.95-74.48-58.97-49.28c-6.64-5.55-9.2-14.46-6.51-22.69s10.01-13.91,18.65-14.48l76.69-4.99,28.64-71.31c3.22-8.03,10.89-13.21,19.54-13.21h.03c8.66.01,16.32,5.22,19.53,13.26l28.45,71.39,76.67,5.2c8.64.59,15.94,6.29,18.61,14.53,2.66,8.24.08,17.14-6.58,22.67l-59.11,49.11,18.74,74.53c2.11,8.4-1.05,17.11-8.07,22.18-3.69,2.68-8.01,4.02-12.34,4.02ZM199.85,265.39c2.44,0,4.89.68,7.04,2.04l60.78,38.39-17.53-69.72c-1.24-4.92.46-10.11,4.36-13.35l55.29-45.94-71.72-4.87c-5.06-.34-9.47-3.56-11.35-8.27l-26.61-66.78-26.79,66.71c-1.89,4.71-6.31,7.91-11.37,8.24l-71.74,4.67,55.16,46.1c3.89,3.25,5.57,8.45,4.32,13.36l-17.73,69.67,60.89-38.22c2.14-1.34,4.58-2.02,7.01-2.02ZM161.08,158.68h.01-.01Z"/>
</svg>